<?xml version="1.0" encoding="UTF-8"?><svg id="Layer_1" xmlns="http://www.w3.org/2000/svg" viewBox="0 0 120 120"><defs><style>.cls-1{fill:#173140;}.cls-2{fill:#469dcc;}.cls-3{fill:#fff;}.cls-4{fill:#a8cbdb;}.cls-5{fill:#dbeff7;}</style></defs><rect class="cls-3" x="-4" y="-4" width="130" height="130"/><rect class="cls-4" x="19.5" y="23.71" width="83" height="62" rx="17.88" ry="17.88"/><rect class="cls-4" x="17.5" y="23.71" width="83" height="62" rx="17.88" ry="17.88"/><path class="cls-4" d="M42.21,85.71v11.77c0,.77.97,1.1,1.44.49l13.35-12.27"/><rect class="cls-5" x="17.5" y="21.71" width="83" height="62" rx="17.88" ry="17.88"/><path class="cls-5" d="M42.21,83.71v11.77c0,.77.97,1.1,1.44.49l13.35-12.27"/><g id="logo"><path class="cls-2" d="M53.34,72.23c.48-.48,1.04-.94,1.52-1.48,1.58-1.76,2.76-3.79,3.37-6.09.77-3.01.1-5.79-1.75-8.23-.94-1.25-1.95-2.44-2.65-3.79-1.04-2.07-1.72-4.2-1.52-6.57.16-3.07,1.27-5.69,3.39-7.85,1.75-1.83,4.01-3.18,6.36-4.33,3.39-1.59,7.06-2.61,10.83-3.07,1.81-.24,3.71-.34,5.58-.4,2.17-.07,4.39-.07,6.58-.07h.3c-1.24,8.3-2.52,16.46-3.76,24.72-.64-.17-1.18-.34-1.72-.48-1.11-.31-2.21-.65-3.37-.94-.23-.06-.34-.17-.3-.48.4-2.37.77-4.74,1.11-7.11.4-2.61.81-5.21,1.24-7.85.1-.65.16-1.28.3-1.97v-.24c-.64,0-1.24-.06-1.81,0-2.23.1-4.45.41-6.62.94-3.46.81-6.7,2.13-9.59,4.2-1.58,1.12-2.59,2.67-2.89,4.6-.16,1.35.1,2.67.7,3.9.54,1.12,1.35,2.13,2.12,3.07,1.72,2.13,2.89,4.58,3.3,7.35.3,1.83.16,3.72-.23,5.55,0,.11-.02.21-.06.31,2.22-.79,4.52-1.34,6.86-1.66.54,1.83,1.02,3.62,1.52,5.45-.57.11-1.18.17-1.75.31-3.63.65-7.06,1.83-10.12,3.9-.6.41-1.23.78-1.88,1.12-.1.06-.23.06-.34,0-1.64-.92-3.12-1.84-4.73-2.82Z"/><path class="cls-1" d="M41.86,63.94c3.2.1,6.36.64,9.42,1.59,1.04.34,2.12.78,3.3,1.19-.48.71-.88,1.35-1.35,1.9-.77.88-1.58,1.66-2.42,2.47-.06.06-.23.06-.34.06-2.76-.88-5.58-1.48-8.48-1.53-1.35-.06-2.65.06-4.01.11h-.64c-2.41-13.08-4.33-26.22-6.34-39.42h6.29c5.28.06,10.46.81,15.41,2.85,1.02.4,1.99.88,2.99,1.35-.77.71-1.47,1.35-2.12,2.07-.65.73-1.26,1.5-1.81,2.31-2.18-1.02-4.55-1.73-6.86-2.2-2.42-.47-4.87-.73-7.33-.78,1.34,9.39,2.83,18.74,4.3,28.02Z"/><path class="cls-1" d="M86.86,59.33c-1.72,1.05-3.39,2.07-5.04,3.07,1.72,1.73,3.46,3.49,5.18,5.21-1.27,1.19-2.46,2.37-3.71,3.62-1.72-1.73-3.39-3.41-5.18-5.21-1.02,1.73-1.99,3.39-3.06,5.08-1.58-5.55-3.13-11.01-4.7-16.55,5.55,1.56,10.99,3.19,16.51,4.78Z"/></g></svg>